<svg width="25" height="25" viewBox="0 0 25 25" fill="none" xmlns="http://www.w3.org/2000/svg">
<path d="M24.5564 12.4233C24.5564 5.79522 19.1845 0.42334 12.5564 0.42334C5.92827 0.42334 0.556396 5.79522 0.556396 12.4233C0.556396 18.0483 4.43296 22.7733 9.65952 24.0718V16.089H7.18452V12.4233H9.65952V10.8437C9.65952 6.76084 11.5064 4.86709 15.5189 4.86709C16.2783 4.86709 17.5908 5.01709 18.1298 5.16709V8.48584C17.8486 8.45771 17.3564 8.43896 16.7423 8.43896C14.7736 8.43896 14.0142 9.18428 14.0142 11.1202V12.4233H17.933L17.258 16.089H14.0095V24.3343C19.9533 23.6171 24.5564 18.5593 24.5564 12.4233Z" fill="#EF7E7C"/>
</svg>
