<svg width="25" height="25" viewBox="0 0 25 25" fill="none" xmlns="http://www.w3.org/2000/svg">
<path d="M15.1345 9.64835V13.4593C15.1345 13.5577 15.0595 13.6327 14.9611 13.6327H14.3517C14.2908 13.6327 14.2392 13.5999 14.2111 13.5624L12.4627 11.2046V13.464C12.4627 13.5624 12.3877 13.6374 12.2892 13.6374H11.6798C11.5814 13.6374 11.5064 13.5624 11.5064 13.464V9.65304C11.5064 9.5546 11.5814 9.4796 11.6798 9.4796H12.2845C12.3361 9.4796 12.397 9.50772 12.4252 9.5546L14.1736 11.9124V9.65304C14.1736 9.5546 14.2486 9.4796 14.347 9.4796H14.9564C15.0548 9.47491 15.1345 9.5546 15.1345 9.64366V9.64835ZM10.7423 9.47491H10.133C10.0345 9.47491 9.95953 9.54991 9.95953 9.64835V13.4593C9.95953 13.5577 10.0345 13.6327 10.133 13.6327H10.7423C10.8408 13.6327 10.9158 13.5577 10.9158 13.4593V9.64835C10.9158 9.55929 10.8408 9.47491 10.7423 9.47491ZM9.27047 12.6671H7.60172V9.64835C7.60172 9.54991 7.52672 9.47491 7.42828 9.47491H6.81891C6.72047 9.47491 6.64547 9.54991 6.64547 9.64835V13.4593C6.64547 13.5062 6.65953 13.5437 6.69234 13.5765C6.72515 13.6046 6.76265 13.6233 6.80953 13.6233H9.25641C9.35484 13.6233 9.42984 13.5483 9.42984 13.4499V12.8405C9.42984 12.7515 9.35484 12.6671 9.26578 12.6671H9.27047ZM18.3502 9.47491H15.8986C15.8095 9.47491 15.7252 9.54991 15.7252 9.64835V13.4593C15.7252 13.5483 15.8002 13.6327 15.8986 13.6327H18.3455C18.4439 13.6327 18.5189 13.5577 18.5189 13.4593V12.8452C18.5189 12.7468 18.4439 12.6718 18.3455 12.6718H16.6814V12.0343H18.3455C18.4439 12.0343 18.5189 11.9593 18.5189 11.8608V11.2468C18.5189 11.1483 18.4439 11.0733 18.3455 11.0733H16.6814V10.4312H18.3455C18.4439 10.4312 18.5189 10.3562 18.5189 10.2577V9.64835C18.5142 9.55929 18.4392 9.47491 18.3455 9.47491H18.3502ZM24.5564 4.80147V20.0827C24.5517 22.4827 22.583 24.428 20.1783 24.4233H4.89703C2.49703 24.4187 0.551717 22.4452 0.556405 20.0452V4.76397C0.561092 2.36397 2.53453 0.418661 4.93453 0.423348H20.2158C22.6158 0.428036 24.5611 2.39679 24.5564 4.80147ZM21.2564 11.3687C21.2564 7.45929 17.333 4.27647 12.5189 4.27647C7.70484 4.27647 3.78141 7.45929 3.78141 11.3687C3.78141 14.8702 6.88922 17.8093 11.0892 18.3671C12.1111 18.5874 11.9939 18.9624 11.7642 20.3405C11.7267 20.5608 11.5861 21.203 12.5189 20.814C13.4517 20.4249 17.5486 17.8515 19.3861 15.7421C20.6517 14.3499 21.2564 12.939 21.2564 11.378V11.3687Z" fill="#EF7E7C"/>
</svg>
